/vscmnt/brussel_pixiu_data/_data_brussel/112/vsc11236/PredSimResults/SUBJ06mtu3D/worker8.mot
version=1
nRows=11
nColumns=50
inDegrees=yes
endheader
                time	         pelvis_tilt	         pelvis_list	     pelvis_rotation	           pelvis_tx	           pelvis_ty	           pelvis_tz	       hip_flexion_r	     hip_adduction_r	      hip_rotation_r	        knee_angle_r	       ankle_angle_r	         mtp_angle_r	       hip_flexion_l	     hip_adduction_l	      hip_rotation_l	        knee_angle_l	       ankle_angle_l	         mtp_angle_l	    lumbar_extension	      lumbar_bending	     lumbar_rotation	 ercspn_r/activation	 intobl_r/activation	 extobl_r/activation	    abd_r/activation	    add_r/activation	hamstrings_r/activation	bifemsh_r/activation	glut_max_r/activation	iliopsoas_r/activation	rect_fem_r/activation	  vasti_r/activation	gastroc_r/activation	 soleus_r/activation	tib_ant_r/activation	 ercspn_l/activation	 intobl_l/activation	 extobl_l/activation	    abd_l/activation	    add_l/activation	hamstrings_l/activation	bifemsh_l/activation	glut_max_l/activation	iliopsoas_l/activation	rect_fem_l/activation	  vasti_l/activation	gastroc_l/activation	 soleus_l/activation	tib_ant_l/activation	
          1.89879372	         -6.45082688	          1.48415439	         -5.42781639	          2.12664897	          0.93065298	          0.01134112	        -11.04611020	         -0.77052303	          0.42592687	         -9.06320345	          7.91766716	         33.11680493	         30.57303147	         -0.24267135	         -3.42672138	         -3.66716441	          2.26959723	          0.22778995	         -5.79048961	          0.38739588	         -0.36231052	          0.08594362	          0.00999999	          0.00999999	          0.06141883	          0.01000000	          0.01000194	          0.14724154	          0.05498311	          0.44022003	          0.02150535	          0.00999999	          0.37577191	          0.32260216	          0.02150519	          0.15125148	          0.17176168	          0.00999999	          0.00999999	          0.15760276	          0.17292708	          0.25109290	          0.01959297	          0.18074607	          0.00999999	          0.00999999	          0.02696912	          0.00999999	          0.40636210	
          1.91145235	         -6.53469764	          1.41235205	         -5.47366966	          2.14381416	          0.92862082	          0.01058079	        -11.46202389	         -0.81184866	         -0.01651990	        -10.01923715	          7.03207266	         34.98942430	         30.76658043	         -0.14217864	         -3.24226237	         -5.56148137	          1.81590236	          0.21116715	         -5.46564848	          0.13711829	          0.00998613	          0.11325546	          0.00999999	          0.00999999	          0.05071841	          0.02594777	          0.01569802	          0.12158904	          0.04623744	          0.44007868	          0.01775868	          0.01688665	          0.34954491	          0.30451312	          0.01775854	          0.12562359	          0.14183727	          0.00999999	          0.00999999	          0.17777330	          0.15912045	          0.20734736	          0.06233038	          0.14925639	          0.01000000	          0.00999999	          0.02227055	          0.01466464	          0.41362333	
          1.92411097	         -6.60139938	          1.35770865	         -5.48077298	          2.16133013	          0.92686306	          0.00972118	        -11.71765807	         -0.88037815	         -0.47673642	        -11.30769109	          5.99513560	         36.91750756	         30.76795248	         -0.05303824	         -3.02589386	         -7.32678322	          1.39755221	          0.19791320	         -5.12604865	         -0.13941665	          0.37801100	          0.09880509	          0.00999999	          0.00999999	          0.04188222	          0.02142714	          0.01541853	          0.10040573	          0.03818193	          0.44617627	          0.01466476	          0.02150520	          0.31909973	          0.28010252	          0.01466464	          0.12527073	          0.11712630	          0.00999999	          0.05424351	          0.14680158	          0.14607612	          0.17122319	          0.09598583	          0.12325286	          0.00999999	          0.00999999	          0.01839056	          0.01210976	          0.51137301	
          1.93676960	         -6.65220972	          1.29994837	         -5.44743516	          2.17894056	          0.92554225	          0.00874424	        -11.72852082	         -0.95665903	         -0.95615386	        -13.04069576	          4.77063868	         38.87207148	         30.64397608	          0.04323115	         -2.87443104	         -8.86077445	          0.78473526	          0.17371601	         -4.80433732	         -0.41639336	          0.73161612	          0.12952208	          0.00999999	          0.00999999	          0.03458548	          0.06093409	          0.03264056	          0.08291299	          0.03152985	          0.44502196	          0.01210986	          0.01775855	          0.26950980	          0.25253596	          0.01210976	          0.14013271	          0.09672050	          0.00999999	          0.11192708	          0.22295733	          0.13034128	          0.14139260	          0.13684115	          0.10177968	          0.00999999	          0.00999999	          0.01518655	          0.00999999	          0.56186070	
          1.94942822	         -6.68499885	          1.24192454	         -5.37956878	          2.19646220	          0.92476905	          0.00767116	        -11.41217513	         -1.04846485	         -1.45970316	        -15.34195439	          3.35608805	         40.74866547	         30.46463657	          0.15067685	         -2.76785000	        -10.35760783	          0.37429640	          0.13754752	         -4.51762252	         -0.69760523	          1.06701452	          0.16452123	          0.00999999	          0.00999999	          0.02855998	          0.11777054	          0.02917535	          0.06846785	          0.02603671	          0.42668465	          0.01000008	          0.01466465	          0.22255566	          0.20853901	          0.00999999	          0.14982650	          0.07986980	          0.00999999	          0.16471726	          0.26709479	          0.11687243	          0.11675910	          0.19096607	          0.08404757	          0.00999999	          0.01000000	          0.01254074	          0.01000000	          0.57642961	
          1.96208685	         -6.69943063	          1.19005167	         -5.28050119	          2.21370890	          0.92465648	          0.00652937	        -10.70755503	         -1.16895879	         -1.99924051	        -18.28804970	          1.77052022	         42.28958839	         30.27550989	          0.27131357	         -2.68639665	        -11.90476759	          0.32328537	          0.10601879	         -4.27912718	         -0.99056595	          1.37997646	          0.19177099	          0.00999999	          0.00999999	          0.02358424	          0.19438813	          0.03989258	          0.05653934	          0.02150058	          0.38540627	          0.00999999	          0.01210976	          0.18378189	          0.17220724	          0.00999999	          0.15028322	          0.06595484	          0.00999999	          0.19480189	          0.28129155	          0.10636759	          0.09641727	          0.20494616	          0.06940476	          0.00999999	          0.05098108	          0.01035588	          0.00999999	          0.57685852	
          1.97474547	         -6.69720858	          1.14540281	         -5.15432711	          2.23057336	          0.92526547	          0.00535015	         -9.60659718	         -1.32974583	         -2.59317968	        -21.86973353	          0.10766078	         43.01397998	         30.03202113	          0.40950389	         -2.59780900	        -13.38915435	          0.56588059	          0.08139194	         -4.09276974	         -1.29579088	          1.66874598	          0.20208009	          0.00999999	          0.00999999	          0.01947538	          0.22090846	          0.03294256	          0.04668903	          0.01775473	          0.32881545	          0.00999999	          0.00999999	          0.15176331	          0.14220520	          0.00999999	          0.15008450	          0.05446415	          0.00999999	          0.20520344	          0.25759026	          0.09669360	          0.07961940	          0.19799468	          0.05731302	          0.00999999	          0.08886519	          0.00999999	          0.00999999	          0.53749402	
          1.98740410	         -6.68078050	          1.10202166	         -5.00446071	          2.24703631	          0.92657666	          0.00416859	         -8.14920423	         -1.53905224	         -3.24010672	        -25.99673701	         -1.59362247	         42.57970262	         29.67475978	          0.56122315	         -2.48130718	        -14.70213291	          1.12133506	          0.07917436	         -3.95421796	         -1.60648064	          1.93096524	          0.20961967	          0.00999999	          0.00999999	          0.01608237	          0.22456693	          0.02720331	          0.04496229	          0.01466150	          0.27152904	          0.00999999	          0.00999999	          0.12532303	          0.11743013	          0.00999999	          0.14236117	          0.04497538	          0.00999999	          0.20663656	          0.21271274	          0.08846198	          0.06574807	          0.18209300	          0.04732792	          0.00999999	          0.13297183	          0.00999999	          0.00999999	          0.47404425	
          2.00006272	         -6.65392202	          1.05302204	         -4.83116404	          2.26311535	          0.92854615	          0.00301311	         -6.41426108	         -1.79849290	         -3.92550936	        -30.43960941	         -3.54523128	         41.14923963	         29.13728500	          0.71973582	         -2.33277292	        -15.70676756	          1.90541499	          0.14576118	         -3.85573426	         -1.91400909	          2.16249755	          0.21429031	          0.00999999	          0.00999999	          0.01328049	          0.21276081	          0.02246395	          0.07966266	          0.01210716	          0.22422311	          0.00999999	          0.00999999	          0.10348918	          0.09697139	          0.00999999	          0.12446684	          0.03713974	          0.00999999	          0.20241694	          0.17565382	          0.08288311	          0.05429341	          0.16166502	          0.03908242	          0.00999999	          0.15649273	          0.00999999	          0.00999999	          0.40997932	
          2.01272135	         -6.62007990	          0.98682797	         -4.63520373	          2.27881949	          0.93107389	          0.00189092	         -4.48396916	         -2.10116459	         -4.63890441	        -34.99657479	         -5.70350221	         38.62375491	         28.39641168	          0.87161091	         -2.14894679	        -16.32492268	          2.71632598	          0.28012740	         -3.79364522	         -2.20111398	          2.36271862	          0.21623474	          0.00999999	          0.00999999	          0.01096676	          0.17837076	          0.01855029	          0.08200683	          0.00999999	          0.18515884	          0.00999999	          0.00999999	          0.08545924	          0.08007698	          0.06012383	          0.10278216	          0.03066924	          0.00999999	          0.20293828	          0.14505131	          0.07920132	          0.04483438	          0.13387220	          0.03227346	          0.00999999	          0.15925107	          0.00999999	          0.00999999	          0.35886864	
          2.02537997	         -6.58097564	          0.89559496	         -4.42032227	          2.29415102	          0.93397747	          0.00080384	         -2.45623201	         -2.43477393	         -5.36063376	        -39.52033506	         -7.63006353	         34.68427833	         27.48500862	          1.00390523	         -1.92634407	        -16.59663165	          3.45199352	          0.46076574	         -3.76716435	         -2.45358132	          2.53520260	          0.22299647	          0.00999999	          0.01000000	          0.00999999	          0.14729491	          0.01543432	          0.11065139	          0.00999999	          0.15290037	          0.00999999	          0.00999999	          0.07057048	          0.06612593	          0.19603139	          0.08487540	          0.02532603	          0.00999999	          0.20242564	          0.11978040	          0.07607851	          0.03702331	          0.11609123	          0.02665076	          0.00999999	          0.15357696	          0.00999999	          0.00999999	          0.32148308	
